Coordinates
version=1
nRows=15
nColumns=42
inDegrees=yes

Units are S.I. units (second, meters, Newtons, ...)
If the header above contains a line with 'inDegrees', this indicates whether rotational values are in degrees (yes) or radians (no).

endheader
time	pelvis_tilt	pelvis_list	pelvis_rotation	pelvis_tx	pelvis_ty	pelvis_tz	hip_flexion_r	hip_adduction_r	hip_rotation_r	knee_angle_r	knee_adduction_r	knee_angle_r_beta	ankle_angle_r	subtalar_angle_r	mtp_angle_r	hip_flexion_l	hip_adduction_l	hip_rotation_l	knee_angle_l	knee_adduction_l	knee_angle_l_beta	ankle_angle_l	subtalar_angle_l	mtp_angle_l	lumbar_extension	lumbar_bending	lumbar_rotation	arm_flex_r	arm_add_r	arm_rot_r	elbow_flex_r	pro_sup_r	wrist_flex_r	wrist_dev_r	arm_flex_l	arm_add_l	arm_rot_l	elbow_flex_l	pro_sup_l	wrist_flex_l	wrist_dev_l
      0.68000000	      8.68678296	      2.78118553	      2.20098311	     -0.12317880	      0.93310129	     -0.26902945	     20.94672370	     -2.96984465	    -20.30336379	     11.02752602	     -3.41654435	      0.19246664	     13.94350120	     16.65482944	     -7.74756159	    -28.69810753	      3.27267387	    -21.92333793	     10.77595269	     -3.66837626	      0.18807585	     25.14563522	     35.16353418	     -7.74756159	    -22.51343091	     -0.59304727	     -8.33342735	    -11.02310898	     -5.95959955	      0.35206476	     30.01980037	     90.00000001	      0.00000000	      0.00000000	      6.37933858	    -16.89958782	     -8.56537773	     56.67575265	     90.00000001	      0.00000000	      0.00000000
      0.69000000	      8.55539535	      2.50237852	      2.41004810	     -0.10572830	      0.93159991	     -0.26804206	     21.30340338	     -2.60416385	    -19.58840571	     12.96417240	     -3.64807827	      0.22626749	     13.67973754	     14.57082127	     -7.73091306	    -28.96867278	      2.54538258	    -21.96534316	     12.07847793	     -3.91887167	      0.21080921	     24.05556328	     35.45585897	     -7.73091306	    -22.23841900	     -0.14145986	     -8.56017127	    -10.77439276	     -6.15396918	      0.52270604	     29.62586032	     90.00000001	      0.00000000	      0.00000000	      5.87298839	    -16.76378777	     -9.02653248	     57.12899746	     90.00000001	      0.00000000	      0.00000000
      0.70000000	      8.42468317	      2.17329028	      2.56995381	     -0.08800555	      0.93048149	     -0.26692325	     21.65404185	     -2.20517573	    -19.41888024	     15.08726895	     -3.95553881	      0.26332252	     13.36177671	     13.39711771	     -7.72567347	    -29.15213035	      1.82147396	    -21.75163111	     13.52710530	     -4.20241927	      0.23609253	     22.66624558	     35.06196585	     -7.72567347	    -21.93893603	      0.35909240	     -8.62074377	    -10.66395193	     -6.37381389	      0.51329160	     29.54037314	     90.00000001	      0.00000000	      0.00000000	      5.48100013	    -16.64207476	     -9.06003886	     57.07982049	     90.00000001	      0.00000000	      0.00000000
      0.71000000	      8.31569489	      1.78261844	      2.61512429	     -0.07016341	      0.92988108	     -0.26561187	     21.75884338	     -1.61337669	    -18.52707682	     16.93699406	     -4.13636812	      0.29560631	     12.57247970	     11.19246974	     -7.70903097	    -29.22296759	      1.09729827	    -21.57753635	     15.16092622	     -4.52726192	      0.26460808	     20.82157189	     34.68313322	     -7.70903097	    -21.67389510	      0.90347437	     -8.60303673	    -10.38610632	     -6.59372996	      0.52369707	     29.18177312	     90.00000001	      0.00000000	      0.00000000	      4.94080243	    -16.44322479	     -9.29839114	     57.08654624	     90.00000001	      0.00000000	      0.00000000
      0.72000000	      8.30713560	      1.34695170	      2.58384249	     -0.05217880	      0.92980147	     -0.26414652	     21.79906119	     -1.01556356	    -18.37615455	     18.92403753	     -4.45797880	      0.33028676	     12.04955912	     10.45067377	     -7.70554153	    -29.22633218	      0.37564996	    -21.41114495	     17.06630498	     -4.93854224	      0.29786321	     18.81296970	     33.98513835	     -7.70554153	    -21.52019597	      1.49046206	     -8.43394050	    -10.19197044	     -6.85926134	      0.46664607	     29.10572439	     90.00000001	      0.00000000	      0.00000000	      4.44004079	    -16.24111838	     -9.28165872	     56.86315462	     90.00000001	      0.00000000	      0.00000000
      0.73000000	      8.37573069	      0.87743043	      2.42007575	     -0.03420992	      0.93032898	     -0.26252988	     21.64805355	     -0.32154955	    -17.99872394	     20.75800766	     -4.74346345	      0.36229558	     11.47330884	      9.65072134	     -7.70124925	    -29.16594870	     -0.27056410	    -21.04491286	     19.15746929	     -5.36436877	      0.33436092	     16.24680964	     32.76970948	     -7.70124925	    -21.49172181	      2.08557105	     -8.14672485	     -9.89727002	     -7.13782277	      0.38211755	     28.96355439	     90.00000001	      0.00000000	      0.00000000	      3.89464923	    -15.99607719	     -9.29240146	     56.56775759	     90.00000001	      0.00000000	      0.00000000
      0.74000000	      8.51933796	      0.39222326	      2.13305809	     -0.01629827	      0.93148483	     -0.26071218	     21.28102619	      0.43468581	    -17.30127127	     22.43115618	     -4.89599007	      0.39149753	     10.97837225	      8.71661041	     -7.69532529	    -29.01364744	     -0.83134697	    -20.36366931	     21.51647641	     -5.74310545	      0.37553336	     13.33271552	     30.62755047	     -7.69532529	    -21.57597157	      2.65685051	     -7.69951569	     -9.53647769	     -7.40107186	      0.23341378	     28.81899141	     90.00000001	      0.00000000	      0.00000000	      3.33085218	    -15.71513930	     -9.31160855	     56.13876945	     90.00000001	      0.00000000	      0.00000000
      0.75000000	      8.72908864	     -0.03479983	      1.75585445	      0.00137638	      0.93325840	     -0.25886782	     20.66741291	      1.17357867	    -16.06462557	     23.86259415	     -4.81959320	      0.41648084	     10.62042987	      7.27648551	     -7.68354893	    -28.77430493	     -1.16293737	    -18.85045025	     24.11329443	     -5.95255804	      0.42085638	     10.68174838	     26.91393014	     -7.68354893	    -21.78946600	      3.15641260	     -7.22040456	     -9.07685367	     -7.66328422	     -0.10582262	     28.72141893	     90.00000001	      0.00000000	      0.00000000	      2.84259082	    -15.38487459	     -9.29997019	     55.56135910	     90.00000001	      0.00000000	      0.00000000
      0.76000000	      8.98806220	     -0.59904775	      1.33836533	      0.01890194	      0.93524314	     -0.25684511	     19.95549605	      2.03569214	    -15.42632743	     25.18246722	     -4.88876762	      0.43951697	     10.86840509	      6.96677698	     -7.68041706	    -28.12398259	     -1.83596158	    -18.81368650	     27.38778624	     -6.48028660	      0.47800704	      8.42506725	     25.11052352	     -7.68041706	    -22.09220884	      3.75498363	     -6.64522833	     -8.62836849	     -7.98397363	     -0.23146438	     28.78944533	     90.00000001	      0.00000000	      0.00000000	      2.20949311	    -15.08210301	     -9.22213558	     55.12674534	     90.00000001	      0.00000000	      0.00000000
      0.77000000	      9.13913569	     -1.10142789	      0.86681640	      0.03608760	      0.93748377	     -0.25477743	     19.17355381	      2.84826686	    -14.52645961	     26.17895419	     -4.80855389	      0.45690895	     11.23308913	      6.58581264	     -7.67717132	    -27.10298052	     -2.40447387	    -18.56659147	     30.96076115	     -6.97115514	      0.54036722	      6.21424629	     22.61505685	     -7.67717132	    -22.32725608	      4.24630696	     -6.02974147	     -8.12211671	     -8.29309406	     -0.38169441	     28.89252560	     90.00000001	      0.00000000	      0.00000000	      1.60460125	    -14.76294701	     -9.10615061	     54.53219916	     90.00000001	      0.00000000	      0.00000000
      0.78000000	      9.31208179	     -1.42946050	      0.33003348	      0.05290871	      0.94024795	     -0.25276458	     18.12578301	      3.46398340	    -13.08389909	     26.81580664	     -4.38842272	      0.46802412	     11.39217165	      5.21659394	     -7.66564818	    -26.06775749	     -2.61411868	    -16.84686365	     34.51909225	     -6.76386880	      0.60247181	      4.07641594	     17.35985490	     -7.66564818	    -22.64493554	      4.51253965	     -5.33641976	     -7.56553135	     -8.50179707	     -0.82866411	     28.95875227	     90.00000001	      0.00000000	      0.00000000	      1.18807017	    -14.44139928	     -8.87641272	     53.57103838	     90.00000001	      0.00000000	      0.00000000
      0.79000000	      9.37345220	     -1.82588144	     -0.16379359	      0.06942859	      0.94291846	     -0.25071512	     17.11972592	      4.11910984	    -12.40406126	     27.20060101	     -4.23902788	      0.47474005	     12.06165718	      5.18758485	     -7.65527348	    -24.53190486	     -3.09215384	    -16.50506044	     38.36925292	     -7.05267692	      0.66966979	      2.65618021	     14.40913133	     -7.65527348	    -22.86157173	      4.82780680	     -4.68745892	     -6.99177164	     -8.75300652	     -1.09312487	     29.13146158	     90.00000001	      0.00000000	      0.00000000	      0.62898062	    -14.13919443	     -8.60975981	     52.79091153	     90.00000001	      0.00000000	      0.00000000
      0.80000000	      9.37618471	     -2.14296547	     -0.65798747	      0.08564338	      0.94568986	     -0.24866622	     16.05631166	      4.68506177	    -11.95652998	     27.30570930	     -4.19177614	      0.47657453	     12.88062808	      5.59449258	     -7.64760840	    -22.76835602	     -3.53242490	    -16.34324206	     42.15625543	     -7.35892691	      0.73576546	      1.73762435	     11.68381801	     -7.64760840	    -23.02712484	      5.01359791	     -4.05535200	     -6.40385027	     -8.98774440	     -1.25200343	     29.38700675	     90.00000001	      0.00000000	      0.00000000	      0.09158531	    -13.87849067	     -8.27605019	     51.92250588	     90.00000001	      0.00000000	      0.00000000
      0.81000000	      9.38697815	     -2.38267038	     -1.09902786	      0.10166418	      0.94872868	     -0.24669687	     14.85292733	      5.11432469	    -11.78579626	     27.14360029	     -4.17768500	      0.47374520	     13.79734715	      6.38008621	     -7.63768694	    -20.95945868	     -3.88622637	    -15.90156085	     45.66480583	     -7.47061868	      0.79700121	      1.20004996	      8.74868154	     -7.63768694	    -23.19938862	      5.10577389	     -3.44111017	     -5.80085636	     -9.18445956	     -1.41604018	     29.64803403	     90.00000001	      0.00000000	      0.00000000	     -0.39696979	    -13.64205417	     -7.80162194	     50.96787926	     90.00000001	      0.00000000	      0.00000000
      0.82000000	      9.35653109	     -2.49083204	     -1.51380447	      0.11744161	      0.95188472	     -0.24482331	     13.61440598	      5.39224190	    -11.68563962	     26.78424151	     -4.21100178	      0.46747320	     14.68527113	      7.27135408	     -7.63049908	    -18.99654885	     -4.11163557	    -15.88892910	     48.82002477	     -7.85887285	      0.85207017	      1.09779509	      6.70964324	     -7.63049908	    -23.31380302	      5.03741592	     -2.90754087	     -5.17955758	     -9.37142043	     -1.46610424	     29.90851562	     90.00000001	      0.00000000	      0.00000000	     -0.88068563	    -13.42077440	     -7.31057425	     49.91736868	     90.00000001	      0.00000000	      0.00000000
